<svg id="visual" viewBox="0 0 3840 2160" width="3840" height="2160" xmlns="http://www.w3.org/2000/svg" xmlns:xlink="http://www.w3.org/1999/xlink" version="1.1"><g stroke-width="1" stroke-linejoin="bevel"><path d="M2255 804L1527 1420L2372 1517Z" fill="#ed0000" stroke="#ed0000"></path><path d="M2255 804L1464 744L1527 1420Z" fill="#570000" stroke="#570000"></path><path d="M1527 1420L2282 2160L2372 1517Z" fill="#c90001" stroke="#c90001"></path><path d="M782 1500L1488 2160L1527 1420Z" fill="#c90001" stroke="#c90001"></path><path d="M1527 1420L1488 2160L2282 2160Z" fill="#000000" stroke="#000000"></path><path d="M3003 2160L3080 1534L2372 1517Z" fill="#910000" stroke="#910000"></path><path d="M2372 1517L3022 725L2255 804Z" fill="#ff0000" stroke="#ff0000"></path><path d="M3080 1534L3022 725L2372 1517Z" fill="#000000" stroke="#000000"></path><path d="M2255 804L2238 0L1464 744Z" fill="#a60000" stroke="#a60000"></path><path d="M1464 744L782 1500L1527 1420Z" fill="#910000" stroke="#910000"></path><path d="M3022 725L2238 0L2255 804Z" fill="#690000" stroke="#690000"></path><path d="M1535 0L849 664L1464 744Z" fill="#000000" stroke="#000000"></path><path d="M1464 744L849 664L782 1500Z" fill="#b70001" stroke="#b70001"></path><path d="M2238 0L1535 0L1464 744Z" fill="#db0000" stroke="#db0000"></path><path d="M2282 2160L3003 2160L2372 1517Z" fill="#570000" stroke="#570000"></path><path d="M782 1500L847 2160L1488 2160Z" fill="#ed0000" stroke="#ed0000"></path><path d="M3022 725L3050 0L2238 0Z" fill="#a60000" stroke="#a60000"></path><path d="M3840 635L3050 0L3022 725Z" fill="#db0000" stroke="#db0000"></path><path d="M1535 0L671 0L849 664Z" fill="#690000" stroke="#690000"></path><path d="M849 664L0 1372L782 1500Z" fill="#7c0000" stroke="#7c0000"></path><path d="M3840 2160L3840 1407L3080 1534Z" fill="#7c0000" stroke="#7c0000"></path><path d="M3080 1534L3840 1407L3022 725Z" fill="#690000" stroke="#690000"></path><path d="M3840 1407L3840 635L3022 725Z" fill="#b70001" stroke="#b70001"></path><path d="M0 644L0 1372L849 664Z" fill="#b70001" stroke="#b70001"></path><path d="M782 1500L0 2160L847 2160Z" fill="#7c0000" stroke="#7c0000"></path><path d="M671 0L0 644L849 664Z" fill="#b70001" stroke="#b70001"></path><path d="M3003 2160L3840 2160L3080 1534Z" fill="#910000" stroke="#910000"></path><path d="M0 1372L0 2160L782 1500Z" fill="#910000" stroke="#910000"></path><path d="M3840 635L3840 0L3050 0Z" fill="#910000" stroke="#910000"></path><path d="M671 0L0 0L0 644Z" fill="#000000" stroke="#000000"></path></g></svg>